PathFileType	4	(X/Y/Z)	1103211_Cal01.trc	
DataRate	CameraRate	NumFrames	NumMarkers	Units	OrigDataRate	OrigDataStartFrame	OrigNumFrames
300	300	5	77	mm	300	254	337
Frame#	Time	CLAV			STRN			RSHO			LSHO			C7			T10			RBAK			RASI			LASI			RPSI			LPSI			LGTR			RGTR			LHJC			RHJC			LMFC			RMFC			LLTP			RLTP			LMTP			RMTP			LANK			RANK			LMMA			RMMA			LHEE			RHEE			LMT5			RMT5			LTOE			RTOE			RELB			RWRA			RWRB			RFIN			LELB			LWRB			LWRA			LFIN			RFP1			RFP2			RFP3			RFM1			RFM2			RFM3			RFA1			RFA2			RFA3			LFP1			LFP2			LFP3			LFM1			LFM2			LFM3			LFA1			LFA2			LFA3			LKNE			RKNE			RTP1			RTP2			RTP3			RTA1			RTA2			RTA3			LTP1			LTP2			LTP3			LTA1			LFHD			LBHD			RFHD			RBHD			LUPA			LFRA			RUPA			RFRA			
		X1	Y1	Z1	X2	Y2	Z2	X3	Y3	Z3	X4	Y4	Z4	X5	Y5	Z5	X6	Y6	Z6	X7	Y7	Z7	X8	Y8	Z8	X9	Y9	Z9	X10	Y10	Z10	X11	Y11	Z11	X12	Y12	Z12	X13	Y13	Z13	X14	Y14	Z14	X15	Y15	Z15	X16	Y16	Z16	X17	Y17	Z17	X18	Y18	Z18	X19	Y19	Z19	X20	Y20	Z20	X21	Y21	Z21	X22	Y22	Z22	X23	Y23	Z23	X24	Y24	Z24	X25	Y25	Z25	X26	Y26	Z26	X27	Y27	Z27	X28	Y28	Z28	X29	Y29	Z29	X30	Y30	Z30	X31	Y31	Z31	X32	Y32	Z32	X33	Y33	Z33	X34	Y34	Z34	X35	Y35	Z35	X36	Y36	Z36	X37	Y37	Z37	X38	Y38	Z38	X39	Y39	Z39	X40	Y40	Z40	X41	Y41	Z41	X42	Y42	Z42	X43	Y43	Z43	X44	Y44	Z44	X45	Y45	Z45	X46	Y46	Z46	X47	Y47	Z47	X48	Y48	Z48	X49	Y49	Z49	X50	Y50	Z50	X51	Y51	Z51	X52	Y52	Z52	X53	Y53	Z53	X54	Y54	Z54	X55	Y55	Z55	X56	Y56	Z56	X57	Y57	Z57	X58	Y58	Z58	X59	Y59	Z59	X60	Y60	Z60	X61	Y61	Z61	X62	Y62	Z62	X63	Y63	Z63	X64	Y64	Z64	X65	Y65	Z65	X66	Y66	Z66	X67	Y67	Z67	X68	Y68	Z68	X69	Y69	Z69	X70	Y70	Z70	X71	Y71	Z71	X72	Y72	Z72	X73	Y73	Z73	X74	Y74	Z74	X75	Y75	Z75	X76	Y76	Z76	X77	Y77	Z77	

253	0.84000	188.37819	1375.03796	-48.21303	239.74730	1203.68140	-51.59517	87.45569	1424.39722	88.70787	86.33011	1433.24475	-192.74840	48.46056	1429.49207	-47.12935	14.16458	1134.98828	-53.44392	-9.53209	1326.84607	43.68246	178.29274	946.98291	59.75386	174.31009	953.14655	-167.53133	-2.20609	955.54932	-2.39174	-3.44237	954.61096	-100.42601	108.73938	868.97150	-218.64604	108.09744	858.00684	117.68378	102.72240	872.70697	-134.56807	102.04518	868.44977	24.35959	62.88095	466.93799	-84.71284	65.73248	471.39609	-16.55067	71.53468	447.59772	-213.69402	77.56734	450.92639	110.41803	61.70958	437.93768	-93.96913	65.70695	440.89072	-7.46443	57.37642	90.95917	-207.08855	55.89404	87.27377	108.47975	73.39557	98.65585	-121.42064	80.57771	92.72253	24.80882	-14.71317	59.78022	-159.36671	-15.87468	62.96339	60.12248	168.35561	30.74522	-243.65361	165.70154	40.88709	157.65390	212.93330	64.94652	-176.10612	214.54054	65.24107	91.03377	60.24463	1295.98022	346.52142	90.75424	1309.49744	591.70184	56.70322	1244.66638	585.74036	54.37866	1297.80359	666.34906	42.20101	1301.48645	-436.67291	36.70012	1263.22546	-686.01074	68.98074	1324.76746	-679.98700	30.69097	1319.63782	-759.31799	106.26616	762.85388	130.76485	104.76178	669.16101	129.65762	98.99168	577.64783	117.36897	168.45454	818.63837	111.95308	175.77531	717.61371	116.84528	172.96628	625.45581	106.86848	213.01277	771.86005	65.38428	207.81157	671.42432	64.14868	190.34605	581.16058	51.15762	106.94083	769.36255	-230.50392	100.96852	659.67529	-224.65312	92.50641	582.80713	-214.32060	164.22182	824.99994	-212.27504	165.61307	719.00732	-218.78371	158.81630	625.84888	-210.25713	215.58003	769.68768	-160.15648	206.72685	666.30518	-148.89015	186.39552	576.61877	-143.22536	77.32024	485.19650	-210.10594	88.12758	479.10925	108.10168	63.87933	374.15109	127.99263	54.86995	268.91824	125.02328	54.40106	182.65662	114.10570	124.46437	393.25165	62.86827	116.14899	315.61465	62.08139	107.93694	232.79901	64.49098	67.80632	359.97180	-229.29857	65.24789	278.85458	-226.13234	62.10661	193.82709	-216.99947	120.78984	400.83270	-156.79463	NaN	NaN	NaN	72.91682	1608.31750	-128.99391	176.84663	1625.71912	38.03679	186.03233	1634.71521	-109.33058	62.62402	1393.81677	-293.26855	25.35267	1307.00977	-584.94299	56.92047	1336.02014	272.87381	43.91625	1292.36206	430.59793	
254	0.84333	188.33656	1375.01965	-48.21324	239.73518	1203.67041	-51.62498	87.39838	1424.37134	88.69394	86.29543	1433.24670	-192.75102	48.46005	1429.46692	-47.11696	14.14378	1134.97253	-53.48799	-9.53526	1326.83386	43.68033	178.24617	946.97400	59.80026	174.31244	953.14209	-167.49715	-2.23872	955.55151	-2.38432	-3.45367	954.58130	-100.42744	108.73824	868.97644	-218.64665	108.09579	858.00885	117.68443	102.72081	872.69891	-134.54521	102.00925	868.43872	24.38219	62.87500	466.93945	-84.71428	65.76077	471.39453	-16.55827	71.54118	447.57623	-213.67906	77.59027	450.92828	110.41385	61.70502	437.93594	-93.96907	65.72421	440.88736	-7.47032	57.43250	90.91762	-207.10490	55.89319	87.29985	108.50410	73.36751	98.65573	-121.43132	80.55806	92.74302	24.84831	-14.70589	59.75567	-159.35127	-15.85927	62.90357	60.10510	168.38963	30.75158	-243.64833	165.71390	40.85046	157.64957	212.92928	64.89950	-176.12724	214.52303	65.24274	91.03468	60.24684	1295.92810	346.52103	90.71376	1309.43286	591.69373	56.72421	1244.63745	585.73523	54.35849	1297.72058	666.32520	42.21774	1301.45178	-436.67175	36.70256	1263.13965	-686.01758	68.98695	1324.69666	-679.98511	30.67239	1319.53516	-759.27753	106.30833	762.82806	130.76926	104.76677	669.14392	129.69254	99.01167	577.65009	117.41196	168.40138	818.71448	112.07056	175.78920	717.57983	116.85583	172.98706	625.49365	106.86038	213.02171	771.83887	65.32831	207.82512	671.42297	64.12115	190.35429	581.14868	51.15572	106.62250	769.28601	-230.24446	101.05907	659.60535	-224.68510	92.53590	582.79187	-214.31813	164.22092	824.99609	-212.27611	165.64111	718.99341	-218.77065	158.81371	625.83258	-210.25023	215.58470	769.68744	-160.16328	206.64104	666.30389	-148.85869	186.42561	576.63562	-143.23109	77.31364	485.18698	-210.10979	88.17365	479.06021	108.10919	63.90022	374.14975	127.97735	54.85779	268.91711	125.04326	54.40086	182.65633	114.10596	124.46536	393.22394	62.83708	116.15242	315.61475	62.07986	107.97641	232.81877	64.48810	67.95409	360.04791	-229.34267	65.28032	278.86780	-226.12129	62.10257	193.81735	-217.00017	120.73070	400.80484	-156.79854	NaN	NaN	NaN	72.90038	1608.29590	-129.03429	176.80434	1625.70020	38.03897	185.99483	1634.71069	-109.36018	62.57222	1393.79456	-293.24457	25.35355	1306.96008	-584.93982	56.88387	1335.96960	272.87799	43.86949	1292.35217	430.59787	
255	0.84667	188.32567	1375.01123	-48.20177	239.73961	1203.65808	-51.62859	87.39256	1424.36792	88.67842	86.27933	1433.24219	-192.74940	48.40581	1429.45386	-47.17632	14.14146	1134.99341	-53.48857	-9.54885	1326.80896	43.63914	178.25484	946.98389	59.76599	174.27827	953.17444	-167.52608	-2.24309	955.52728	-2.38544	-3.47644	954.55072	-100.42488	108.73518	868.97559	-218.64214	108.10701	857.98676	117.71622	102.71428	872.70862	-134.57149	102.03270	868.43170	24.35561	62.91513	466.96671	-84.71208	65.75638	471.40253	-16.55577	71.58237	447.60254	-213.69023	77.58928	450.92493	110.43486	61.79700	437.88156	-93.94734	65.75139	440.92828	-7.47691	57.45085	90.91296	-207.12157	55.88017	87.27798	108.49924	73.38289	98.65826	-121.39870	80.57138	92.74651	24.82996	-14.68302	59.76898	-159.35594	-15.88793	62.88039	60.12978	168.37651	30.72066	-243.66200	165.69040	40.87469	157.68422	212.93236	64.90873	-176.09737	214.54146	65.22533	91.05867	60.24374	1295.89917	346.52200	90.71632	1309.42371	591.69086	56.72961	1244.59094	585.73193	54.36836	1297.65869	666.33716	42.17974	1301.46667	-436.69415	36.66705	1263.09021	-686.03741	68.97325	1324.63293	-679.98682	30.64166	1319.47449	-759.28888	106.32126	762.84210	130.77432	104.82039	669.15887	129.69572	99.01105	577.65112	117.41400	168.46402	818.61700	111.94276	175.79478	717.58307	116.83543	173.03098	625.47351	106.83200	213.01537	771.85083	65.32532	207.86760	671.45038	64.12080	190.36308	581.14069	51.12369	106.93921	769.33923	-230.51894	101.05449	659.60382	-224.71657	92.53314	582.79205	-214.31837	164.14182	825.00745	-212.25639	165.55185	718.99500	-218.81221	158.81161	625.83081	-210.24983	215.57127	769.68945	-160.16399	206.70988	666.33423	-148.88518	186.42207	576.63489	-143.23039	77.72736	485.23312	-210.20464	88.16498	479.07861	108.11389	63.90463	374.15378	127.99522	54.90411	268.88907	125.03016	54.41992	182.68771	114.11703	124.46042	393.23322	62.87712	116.14568	315.56845	62.08791	107.99403	232.79254	64.49965	67.80450	359.94156	-229.35902	65.29784	278.84491	-226.11778	62.13062	193.82957	-217.00468	120.76607	400.85190	-156.79366	NaN	NaN	NaN	72.86104	1608.30786	-129.08702	176.78456	1625.67322	38.01814	186.14931	1634.66833	-109.33449	62.59215	1393.77295	-293.25568	25.35016	1306.88623	-584.94659	56.83913	1335.97961	272.89145	43.87414	1292.30676	430.56302	
256	0.85000	188.31776	1375.00427	-48.23131	239.67531	1203.68860	-51.59129	87.35481	1424.38110	88.68188	86.27193	1433.24951	-192.76854	48.39531	1429.45605	-47.17149	14.14547	1134.97485	-53.49168	-9.58755	1326.81348	43.64326	178.23216	946.99811	59.75566	174.23645	953.17010	-167.53447	-2.27170	955.51855	-2.38168	-3.51308	954.53760	-100.41933	108.74438	868.97229	-218.68825	108.15672	858.02679	117.69798	102.68234	872.70050	-134.56865	102.01418	868.43622	24.35884	62.94931	466.95972	-84.69984	65.75723	471.40671	-16.55739	71.58261	447.61508	-213.69084	77.58696	450.93277	110.43459	61.71104	437.96866	-93.93700	65.78143	440.93411	-7.48256	57.45995	90.91158	-207.11546	55.88272	87.27785	108.50169	73.39740	98.65527	-121.41991	80.59424	92.79280	24.80965	-14.68432	59.76818	-159.36238	-15.98836	63.18229	60.34279	168.37668	30.71363	-243.66182	165.71468	40.86966	157.66202	212.93690	64.92525	-176.10292	214.55190	65.24759	91.04991	60.27812	1295.88770	346.50723	90.70369	1309.36365	591.68378	56.71872	1244.56189	585.69476	54.26091	1297.58545	666.41699	42.18458	1301.42053	-436.69189	36.71075	1263.02356	-685.98718	68.96886	1324.57190	-679.99030	30.66062	1319.41187	-759.25433	106.33211	762.84875	130.78787	104.83459	669.13983	129.71609	99.05493	577.64813	117.41069	168.47073	818.61133	111.89447	175.83955	717.57788	116.83105	173.03976	625.48108	106.84338	213.02098	771.85272	65.33072	207.86998	671.45197	64.12163	190.35851	581.16064	51.12660	106.98808	769.33228	-230.55360	101.07521	659.63776	-224.72237	92.55777	582.82056	-214.32204	164.15067	825.00787	-212.28850	165.65170	719.04584	-218.78658	158.78235	625.84711	-210.26045	215.59126	769.71649	-160.20622	206.77974	666.35760	-148.86253	186.41008	576.65912	-143.23112	77.38867	485.20071	-210.11626	88.17773	479.08710	108.13374	63.94783	374.18445	127.99496	54.85918	268.88803	125.16862	54.43433	182.68799	114.15137	124.44713	393.21964	62.84811	116.14452	315.56583	62.08781	108.00337	232.79858	64.49815	67.77966	359.93604	-229.36205	65.30922	278.87274	-226.12556	62.13478	193.84016	-217.01112	120.77478	400.85098	-156.79713	NaN	NaN	NaN	72.87247	1608.29968	-129.05797	176.76894	1625.69360	38.01530	186.17235	1634.66638	-109.33330	62.87523	1393.74829	-293.43195	25.34986	1306.88074	-584.95123	56.78719	1335.93640	272.87598	43.86381	1292.25317	430.54034	
257	0.85333	188.25035	1375.01367	-48.24098	239.66866	1203.70715	-51.58583	87.32848	1424.38245	88.67969	86.26787	1433.24854	-192.77913	48.35570	1429.46143	-47.16286	14.14714	1134.97278	-53.49199	-9.59901	1326.80640	43.64825	178.18950	947.02301	59.81387	174.25232	953.18695	-167.49037	-2.29942	955.51221	-2.37115	-3.51410	954.50720	-100.41905	108.71869	868.98376	-218.68526	108.16759	858.05011	117.67264	102.70728	872.70258	-134.53441	101.99802	868.44336	24.39304	62.88950	467.00183	-84.70818	65.81078	471.41125	-16.57951	71.60858	447.63150	-213.70866	77.63158	450.94281	110.42589	61.75264	437.92010	-93.94087	65.78178	440.94504	-7.48045	57.48253	90.94535	-207.12486	55.88849	87.29011	108.50250	73.36124	98.68861	-121.41811	80.60257	92.79980	24.82834	-14.68486	59.76792	-159.36272	-15.84200	62.91027	60.13681	168.38376	30.75783	-243.68730	165.73259	40.88789	157.67824	212.94057	64.92671	-176.10152	214.53133	65.26060	91.06628	60.24339	1295.86108	346.49133	90.69711	1309.33508	591.66888	56.64412	1244.53711	585.69135	54.40117	1297.52173	666.34851	42.17240	1301.40430	-436.70038	36.72009	1262.96252	-685.98541	68.94537	1324.50281	-679.97784	30.66106	1319.36084	-759.25653	106.34012	762.84052	130.83743	104.83397	669.13916	129.71674	99.05708	577.64819	117.41026	168.46463	818.64099	111.92136	175.83122	717.62524	116.81342	173.08684	625.50470	106.79939	213.01381	771.89081	65.34221	207.87392	671.46930	64.09785	190.39934	581.19263	51.12836	106.98651	769.33032	-230.54320	101.08136	659.60132	-224.72765	92.57820	582.80341	-214.33250	164.17282	825.04529	-212.32069	165.64586	719.07062	-218.78847	158.79581	625.88403	-210.26366	215.59712	769.71899	-160.20836	206.72859	666.36066	-148.89287	186.40923	576.66010	-143.23116	77.34557	485.22400	-210.10701	88.22821	479.09259	108.12572	63.94998	374.18524	127.99459	54.89377	268.93118	125.03116	54.41054	182.70859	114.12502	124.49951	393.24478	62.82281	116.15059	315.58209	62.06721	108.00047	232.81946	64.50258	67.87120	359.95758	-229.38237	65.17654	278.92407	-226.07561	62.11252	193.83685	-217.04155	120.76848	400.84744	-156.79701	NaN	NaN	NaN	72.87000	1608.31433	-129.11021	176.76344	1625.72095	38.01768	186.00819	1634.72937	-109.37898	62.59366	1393.76245	-293.31787	25.35105	1306.83667	-584.94427	56.78967	1335.92285	272.87006	43.81616	1292.26038	430.55432	
